<?xml version="1.0" encoding="UTF-8" standalone="no"?>
<svg
   width="0.7in"
   version="1.2"
   height="0.33in"
   viewBox="0 0 70.0 33.0"
   id="svg2"
   xml:space="preserve"
   sodipodi:docname="DIP_Relay_board.svg"
   inkscape:version="1.2.1 (9c6d41e410, 2022-07-14)"
   xmlns:inkscape="http://www.inkscape.org/namespaces/inkscape"
   xmlns:sodipodi="http://sodipodi.sourceforge.net/DTD/sodipodi-0.dtd"
   xmlns="http://www.w3.org/2000/svg"
   xmlns:svg="http://www.w3.org/2000/svg"
   xmlns:rdf="http://www.w3.org/1999/02/22-rdf-syntax-ns#"
   xmlns:cc="http://creativecommons.org/ns#"
   xmlns:dc="http://purl.org/dc/elements/1.1/">
 <metadata
   id="metadata76">
  <rdf:RDF>
   <cc:Work
   rdf:about="">
    <dc:format>image/svg+xml</dc:format>
    <dc:type
   rdf:resource="http://purl.org/dc/dcmitype/StillImage" />
   </cc:Work>
  </rdf:RDF>
 </metadata>
 <defs
   id="defs74">
  
  
  
  
  
  
  
  
  
  
  
  
  
  
  
  
  
  
  
  
  
  
  
  
  
  
  
  
  
  
  
  
  
  
  
  
  
  
  
  
  
  
  
  
  
  
  
  
  
  
  
  
  
 </defs>
 <sodipodi:namedview
   showgrid="false"
   objecttolerance="10"
   pagecolor="#ffffff"
   bordercolor="#666666"
   id="namedview72"
   borderopacity="1"
   guidetolerance="10"
   gridtolerance="10"
   inkscape:showpageshadow="2"
   inkscape:pageopacity="0.0"
   inkscape:pagecheckerboard="0"
   inkscape:deskcolor="#d1d1d1"
   inkscape:document-units="in"
   inkscape:zoom="7.4494947"
   inkscape:cx="33.626442"
   inkscape:cy="15.840001"
   inkscape:window-width="1920"
   inkscape:window-height="1137"
   inkscape:window-x="-8"
   inkscape:window-y="-8"
   inkscape:window-maximized="1"
   inkscape:current-layer="svg2" />
 <rect
   width="70"
   x="0"
   y="3"
   fill="#303030"
   height="27"
   id="middle" /><rect
   width="70"
   x="0"
   y="3"
   fill="#3d3d3d"
   height="2.46"
   id="top" /><rect
   width="70"
   x="0"
   y="27.540001"
   fill="#000000"
   height="2.46"
   id="bottom" /><polygon
   fill="#141414"
   points="69.25,27.54 70,30 70,3 69.25,5.46 "
   id="right" /><polygon
   fill="#1f1f1f"
   points="0.75,27.54 0,30 0,3 0.75,5.46 "
   id="left" /><polygon
   fill="#1c1c1c"
   points="0.56,13.58 0.56,16.5 5,16.5 5,11.5 0.75,11.46 "
   id="left-upper-rect" /><polygon
   fill="#383838"
   points="5,16.5 0.56,16.5 0.56,19.42 0.75,21.55 5,21.55 "
   id="left-lower-rect" /><path
   fill="#262626"
   id="slot"
   d="m 0.56,13.58 v 5.83 c 1.47,-0.17 2.62,-1.4 2.62,-2.92 0,-1.52 -1.14,-2.74 -2.62,-2.91 z" /><path
   fill="#303030"
   id="cover"
   d="m 0.75,5.46 v 5.99 c 2.38,0.45 4.19,2.53 4.19,5.04 0,2.51 -1.8,4.6 -4.19,5.05 v 0.01 h 5 V 5.46 Z" /><circle
   fill="#212121"
   cx="6.5"
   cy="23.469999"
   r="2.0599999"
   id="circle13" /><text
   x="8.7222223"
   y="18.722221"
   style="font-size:8px;font-family:OCRA;text-anchor:start;fill:#e6e6e6;stroke:none"
   id="label"
   font-size="8">VR05R241</text><rect
   width="3"
   x="3.5"
   y="28.66"
   fill="#8c8c8c"
   height="4.3400002"
   id="connector0pin" /><rect
   width="3"
   x="3.5"
   y="30"
   fill="#8c8c8c"
   height="3"
   id="rect153" /><polygon
   fill="#8c8c8c"
   points="6.5,30.66 8.5,29.74 8.5,28.66 3.5,28.66 3.5,30.66 "
   id="polygon18" /><rect
   width="3"
   x="3.5"
   fill="#8c8c8c"
   height="4.3400002"
   id="connector13pin"
   y="0" /><rect
   width="3"
   x="3.5"
   fill="#8c8c8c"
   height="3"
   id="rect157"
   y="0" /><polygon
   fill="#8c8c8c"
   points="6.5,2.34 3.5,2.34 3.5,4.34 8.5,4.34 8.5,3.26 "
   id="polygon22" /><rect
   width="3"
   x="63.5"
   y="28.66"
   fill="#8c8c8c"
   height="4.3400002"
   id="connector6pin" /><rect
   width="3"
   x="63.5"
   y="30"
   fill="#8c8c8c"
   height="3"
   id="rect161" /><polygon
   fill="#8c8c8c"
   points="63.5,30.66 66.5,30.66 66.5,28.66 61.5,28.66 61.5,29.74 "
   id="polygon26" /><rect
   width="3"
   x="63.5"
   y="0"
   fill="#8c8c8c"
   height="4.3400002"
   id="connector7pin" /><rect
   width="3"
   x="63.5"
   y="0"
   fill="#8c8c8c"
   height="3"
   id="rect165" /><polygon
   fill="#8c8c8c"
   points="63.5,2.34 61.5,3.26 61.5,4.34 66.5,4.34 66.5,2.34 "
   id="polygon30" /><rect
   width="3"
   x="13.5"
   y="28.66"
   fill="#8c8c8c"
   height="4.3400002"
   id="connector1pin" /><rect
   width="3"
   x="13.5"
   y="30"
   fill="#8c8c8c"
   height="3"
   id="rect169" /><polygon
   fill="#8c8c8c"
   points="13.5,30.66 16.5,30.66 18.5,29.74 18.5,28.66 11.5,28.66 11.5,29.74 "
   id="polygon34" /><rect
   width="3"
   x="13.5"
   y="0"
   fill="#8c8c8c"
   height="4.3400002"
   id="connector12pin" /><rect
   width="3"
   x="13.5"
   fill="#8c8c8c"
   height="3"
   id="rect173"
   y="0" /><polygon
   fill="#8c8c8c"
   points="16.5,2.34 13.5,2.34 11.5,3.26 11.5,4.34 18.5,4.34 18.5,3.26 "
   id="polygon38" /><rect
   width="3"
   x="53.5"
   y="28.66"
   fill="#8c8c8c"
   height="4.3400002"
   id="connector5pin" /><rect
   width="3"
   x="53.5"
   y="30"
   fill="#8c8c8c"
   height="3"
   id="rect201" /><polygon
   fill="#8c8c8c"
   points="53.5,30.66 56.5,30.66 58.5,29.74 58.5,28.66 51.5,28.66 51.5,29.74 "
   id="polygon66" /><rect
   width="3"
   x="53.5"
   y="0"
   fill="#8c8c8c"
   height="4.3400002"
   id="connector8pin" /><rect
   width="3"
   x="53.5"
   fill="#8c8c8c"
   height="3"
   id="rect205"
   y="0" /><polygon
   fill="#8c8c8c"
   points="56.5,2.34 53.5,2.34 51.5,3.26 51.5,4.34 58.5,4.34 58.5,3.26 "
   id="polygon70" />
</svg>
